<svg width="28" height="28" viewBox="0 0 28 28" fill="none" xmlns="http://www.w3.org/2000/svg">
<path d="M14.4667 22.6917L5.3375 13.5333C5.12361 13.3194 4.95833 13.0764 4.84167 12.8042C4.725 12.5319 4.66667 12.25 4.66667 11.9583C4.66667 11.6667 4.725 11.3847 4.84167 11.1125C4.95833 10.8403 5.12361 10.5972 5.3375 10.3833L10.3833 5.3375C10.5972 5.12361 10.8403 4.96319 11.1125 4.85625C11.3847 4.74931 11.6667 4.69583 11.9583 4.69583C12.25 4.69583 12.5319 4.74931 12.8042 4.85625C13.0764 4.96319 13.3194 5.12361 13.5333 5.3375L22.6625 14.4667C22.8764 14.6806 23.0417 14.9236 23.1583 15.1958C23.275 15.4681 23.3333 15.75 23.3333 16.0417C23.3333 16.3333 23.275 16.6153 23.1583 16.8875C23.0417 17.1597 22.8764 17.4028 22.6625 17.6167L17.6167 22.6917C17.4028 22.9056 17.1597 23.066 16.8875 23.1729C16.6153 23.2799 16.3333 23.3333 16.0417 23.3333C15.75 23.3333 15.4681 23.2799 15.1958 23.1729C14.9236 23.066 14.6806 22.9056 14.4667 22.6917ZM16.0417 21L21 16.0417L11.9583 7L7 11.9583L16.0417 21ZM14 28C12.075 28 10.2618 27.6354 8.56042 26.9062C6.85903 26.1771 5.37153 25.1757 4.09792 23.9021C2.82431 22.6285 1.82292 21.141 1.09375 19.4396C0.364583 17.7382 0 15.925 0 14H2.33333C2.33333 15.3806 2.56667 16.7028 3.03333 17.9667C3.5 19.2306 4.14653 20.3681 4.97292 21.3792C5.79931 22.3903 6.78611 23.2507 7.93333 23.9604C9.08056 24.6701 10.3347 25.1708 11.6958 25.4625L8.63333 22.4L10.2667 20.7667L17.15 27.65C16.6444 27.7667 16.1243 27.8542 15.5896 27.9125C15.0549 27.9708 14.525 28 14 28ZM25.6667 14C25.6667 12.6194 25.4333 11.2972 24.9667 10.0333C24.5 8.76944 23.8535 7.63194 23.0271 6.62083C22.2007 5.60972 21.2139 4.74931 20.0667 4.03958C18.9194 3.32986 17.6653 2.82917 16.3042 2.5375L19.3667 5.6L17.7333 7.23333L10.85 0.35C11.3556 0.233333 11.8757 0.145833 12.4104 0.0875C12.9451 0.0291667 13.475 0 14 0C15.925 0 17.7382 0.364583 19.4396 1.09375C21.141 1.82292 22.6285 2.82431 23.9021 4.09792C25.1757 5.37153 26.1771 6.85903 26.9062 8.56042C27.6354 10.2618 28 12.075 28 14H25.6667ZM10.8792 11.7833C11.1319 11.7833 11.341 11.6958 11.5063 11.5208C11.6715 11.3458 11.7542 11.1417 11.7542 10.9083C11.7542 10.6556 11.6715 10.4465 11.5063 10.2812C11.341 10.116 11.1319 10.0333 10.8792 10.0333C10.6458 10.0333 10.4417 10.116 10.2667 10.2812C10.0917 10.4465 10.0042 10.6556 10.0042 10.9083C10.0042 11.1417 10.0917 11.3458 10.2667 11.5208C10.4417 11.6958 10.6458 11.7833 10.8792 11.7833Z" fill="#F5F5F5"/>
</svg>
